<mxfile host="app.diagrams.net" agent="Mozilla/5.0 (X11; Linux x86_64) AppleWebKit/537.36 (KHTML, like Gecko) Chrome/139.0.0.0 Safari/537.36" version="28.2.0">
  <diagram name="Página-1" id="G4cWWktC9iXBZyXn1JYY">
    <mxGraphModel grid="1" page="1" gridSize="10" guides="1" tooltips="1" connect="1" arrows="1" fold="1" pageScale="1" pageWidth="827" pageHeight="1169" math="0" shadow="0">
      <root>
        <mxCell id="0" />
        <mxCell id="1" parent="0" />
        <mxCell id="P23CpKH9avX1GJxu7sEn-3" value="" style="rounded=0;whiteSpace=wrap;html=1;" vertex="1" parent="1">
          <mxGeometry x="354" y="230" width="120" height="390" as="geometry" />
        </mxCell>
        <mxCell id="P23CpKH9avX1GJxu7sEn-7" style="edgeStyle=orthogonalEdgeStyle;rounded=0;orthogonalLoop=1;jettySize=auto;html=1;exitX=0;exitY=0;exitDx=0;exitDy=0;" edge="1" parent="1" source="P23CpKH9avX1GJxu7sEn-4">
          <mxGeometry relative="1" as="geometry">
            <mxPoint x="320" y="499.83333333333337" as="targetPoint" />
          </mxGeometry>
        </mxCell>
        <mxCell id="P23CpKH9avX1GJxu7sEn-4" value="VALOR&lt;br&gt;(&lt;b&gt;endereço 1&lt;/b&gt;)" style="rounded=0;whiteSpace=wrap;html=1;fillColor=#dae8fc;strokeColor=#6c8ebf;" vertex="1" parent="1">
          <mxGeometry x="354" y="500" width="120" height="50" as="geometry" />
        </mxCell>
        <mxCell id="P23CpKH9avX1GJxu7sEn-8" style="edgeStyle=orthogonalEdgeStyle;rounded=0;orthogonalLoop=1;jettySize=auto;html=1;exitX=1;exitY=0;exitDx=0;exitDy=0;" edge="1" parent="1" source="P23CpKH9avX1GJxu7sEn-5">
          <mxGeometry relative="1" as="geometry">
            <mxPoint x="510" y="299.83333333333337" as="targetPoint" />
          </mxGeometry>
        </mxCell>
        <mxCell id="P23CpKH9avX1GJxu7sEn-5" value="VALOR" style="rounded=0;whiteSpace=wrap;html=1;fillColor=#dae8fc;strokeColor=#6c8ebf;" vertex="1" parent="1">
          <mxGeometry x="354" y="300" width="120" height="50" as="geometry" />
        </mxCell>
        <mxCell id="P23CpKH9avX1GJxu7sEn-10" value="" style="shape=hexagon;perimeter=hexagonPerimeter2;whiteSpace=wrap;html=1;fixedSize=1;fillColor=#fff2cc;strokeColor=#d6b656;" vertex="1" parent="1">
          <mxGeometry x="510" y="260" width="120" height="80" as="geometry" />
        </mxCell>
        <mxCell id="P23CpKH9avX1GJxu7sEn-11" value="" style="shape=hexagon;perimeter=hexagonPerimeter2;whiteSpace=wrap;html=1;fixedSize=1;fillColor=#fff2cc;strokeColor=#d6b656;" vertex="1" parent="1">
          <mxGeometry x="200" y="460" width="120" height="80" as="geometry" />
        </mxCell>
        <mxCell id="P23CpKH9avX1GJxu7sEn-12" value="&lt;b&gt;Endereço 1&lt;/b&gt;" style="text;strokeColor=none;align=center;fillColor=none;html=1;verticalAlign=middle;whiteSpace=wrap;rounded=0;" vertex="1" parent="1">
          <mxGeometry x="520" y="285" width="70" height="30" as="geometry" />
        </mxCell>
        <mxCell id="P23CpKH9avX1GJxu7sEn-13" value="&lt;b&gt;Endereço&lt;/b&gt;" style="text;strokeColor=none;align=center;fillColor=none;html=1;verticalAlign=middle;whiteSpace=wrap;rounded=0;" vertex="1" parent="1">
          <mxGeometry x="250" y="485" width="60" height="30" as="geometry" />
        </mxCell>
        <mxCell id="P23CpKH9avX1GJxu7sEn-14" value="Tipo" style="text;strokeColor=none;align=center;fillColor=none;html=1;verticalAlign=middle;whiteSpace=wrap;rounded=0;" vertex="1" parent="1">
          <mxGeometry x="220" y="510" width="30" height="30" as="geometry" />
        </mxCell>
        <mxCell id="P23CpKH9avX1GJxu7sEn-15" value="Identificador" style="text;strokeColor=none;align=center;fillColor=none;html=1;verticalAlign=middle;whiteSpace=wrap;rounded=0;" vertex="1" parent="1">
          <mxGeometry x="220" y="460" width="70" height="30" as="geometry" />
        </mxCell>
        <mxCell id="KFixjQz8el2nmp9Rcbte-1" value="Tipo" style="text;strokeColor=none;align=center;fillColor=none;html=1;verticalAlign=middle;whiteSpace=wrap;rounded=0;" vertex="1" parent="1">
          <mxGeometry x="580" y="310" width="30" height="30" as="geometry" />
        </mxCell>
        <mxCell id="KFixjQz8el2nmp9Rcbte-2" value="Identificador" style="text;strokeColor=none;align=center;fillColor=none;html=1;verticalAlign=middle;whiteSpace=wrap;rounded=0;" vertex="1" parent="1">
          <mxGeometry x="540" y="260" width="70" height="30" as="geometry" />
        </mxCell>
        <mxCell id="KFixjQz8el2nmp9Rcbte-3" style="edgeStyle=orthogonalEdgeStyle;rounded=0;orthogonalLoop=1;jettySize=auto;html=1;exitX=1;exitY=0.5;exitDx=0;exitDy=0;entryX=0.5;entryY=1;entryDx=0;entryDy=0;" edge="1" parent="1" source="P23CpKH9avX1GJxu7sEn-4" target="P23CpKH9avX1GJxu7sEn-12">
          <mxGeometry relative="1" as="geometry" />
        </mxCell>
        <mxCell id="KFixjQz8el2nmp9Rcbte-4" value="&lt;font style=&quot;font-size: 15px;&quot;&gt;Variável &lt;b style=&quot;&quot;&gt;Ponteiro&lt;/b&gt;&lt;/font&gt;" style="text;strokeColor=none;align=center;fillColor=none;html=1;verticalAlign=middle;whiteSpace=wrap;rounded=0;" vertex="1" parent="1">
          <mxGeometry x="225" y="420" width="70" height="30" as="geometry" />
        </mxCell>
        <mxCell id="KFixjQz8el2nmp9Rcbte-5" value="&lt;font style=&quot;font-size: 15px;&quot;&gt;Variável &lt;b style=&quot;&quot;&gt;Comum&lt;/b&gt;&lt;/font&gt;" style="text;strokeColor=none;align=center;fillColor=none;html=1;verticalAlign=middle;whiteSpace=wrap;rounded=0;" vertex="1" parent="1">
          <mxGeometry x="535" y="220" width="70" height="30" as="geometry" />
        </mxCell>
      </root>
    </mxGraphModel>
  </diagram>
</mxfile>
